<?xml version="1.0" encoding="UTF-8" standalone="no"?>
<!-- Created with Inkscape (http://www.inkscape.org/) -->

<svg
   width="208mm"
   height="104mm"
   viewBox="0 0 208 104"
   version="1.1"
   id="svg1"
   inkscape:version="1.3 (0e150ed6c4, 2023-07-21)"
   sodipodi:docname="page1.svg"
   inkscape:export-filename="page1.png"
   inkscape:export-xdpi="254"
   inkscape:export-ydpi="254"
   xml:space="preserve"
   xmlns:inkscape="http://www.inkscape.org/namespaces/inkscape"
   xmlns:sodipodi="http://sodipodi.sourceforge.net/DTD/sodipodi-0.dtd"
   xmlns:xlink="http://www.w3.org/1999/xlink"
   xmlns="http://www.w3.org/2000/svg"
   xmlns:svg="http://www.w3.org/2000/svg"><sodipodi:namedview
     id="namedview1"
     pagecolor="#ffffff"
     bordercolor="#000000"
     borderopacity="0.25"
     inkscape:showpageshadow="2"
     inkscape:pageopacity="0.0"
     inkscape:pagecheckerboard="0"
     inkscape:deskcolor="#d1d1d1"
     inkscape:document-units="mm"
     inkscape:zoom="0.70710678"
     inkscape:cx="335.87572"
     inkscape:cy="260.9224"
     inkscape:window-width="1904"
     inkscape:window-height="993"
     inkscape:window-x="0"
     inkscape:window-y="0"
     inkscape:window-maximized="0"
     inkscape:current-layer="layer1"><sodipodi:guide
       position="5.1999999,98.800001"
       orientation="117.92127,0"
       id="guide27"
       inkscape:locked="false" /><sodipodi:guide
       position="5.1999999,67.599999"
       orientation="0,117.92127"
       id="guide28"
       inkscape:locked="false" /><sodipodi:guide
       position="36.400002,67.599999"
       orientation="-117.92127,0"
       id="guide29"
       inkscape:locked="false" /><sodipodi:guide
       position="36.400002,98.800001"
       orientation="0,-117.92127"
       id="guide30"
       inkscape:locked="false" /><sodipodi:guide
       position="5.1999999,36.400002"
       orientation="117.92128,0"
       id="guide31"
       inkscape:locked="false" /><sodipodi:guide
       position="5.1999999,5.199997"
       orientation="0,117.92127"
       id="guide32"
       inkscape:locked="false" /><sodipodi:guide
       position="36.400002,5.199997"
       orientation="-117.92128,0"
       id="guide33"
       inkscape:locked="false" /><sodipodi:guide
       position="36.400002,36.400002"
       orientation="0,-117.92127"
       id="guide34"
       inkscape:locked="false" /><sodipodi:guide
       position="67.599999,67.599999"
       orientation="0,117.92128"
       id="guide36"
       inkscape:locked="false" /><sodipodi:guide
       position="98.800004,98.800001"
       orientation="0,-117.92128"
       id="guide38"
       inkscape:locked="false" /><sodipodi:guide
       position="130,67.599999"
       orientation="0,117.92125"
       id="guide40"
       inkscape:locked="false" /><sodipodi:guide
       position="161.2,98.800001"
       orientation="0,-117.92125"
       id="guide42"
       inkscape:locked="false" /><sodipodi:guide
       position="192.4,104"
       orientation="393.07087,0"
       id="guide43"
       inkscape:locked="false" /><sodipodi:guide
       position="192.4,0"
       orientation="0,58.960653"
       id="guide44"
       inkscape:locked="false" /><sodipodi:guide
       position="208,0"
       orientation="-393.07087,0"
       id="guide45"
       inkscape:locked="false" /><sodipodi:guide
       position="208,104"
       orientation="0,-58.960653"
       id="guide46"
       inkscape:locked="false" /><sodipodi:guide
       position="202.80001,104"
       orientation="393.07087,0"
       id="guide54"
       inkscape:locked="false" /><sodipodi:guide
       position="202.80001,0"
       orientation="0,19.653532"
       id="guide55"
       inkscape:locked="false" /><sodipodi:guide
       position="208,0"
       orientation="-393.07087,0"
       id="guide56"
       inkscape:locked="false" /><sodipodi:guide
       position="208,104"
       orientation="0,-19.653532"
       id="guide57"
       inkscape:locked="false" /></sodipodi:namedview><defs
     id="defs1"><pattern
       inkscape:collect="always"
       xlink:href="#halftones"
       preserveAspectRatio="xMidYMid"
       id="pattern48"
       patternTransform="scale(0.2)"
       x="0"
       y="0" /><pattern
       patternUnits="userSpaceOnUse"
       width="10"
       height="10"
       preserveAspectRatio="xMidYMid"
       style="fill:#ea2300"
       id="halftones"
       x="0"
       y="0"
       inkscape:label="Halftones"
       inkscape:collect="always"
       inkscape:isstock="true"><g
         id="fullPattern"
         style="display:inline"
         transform="scale(0.1)"><circle
           style="fill-opacity:1;stroke:none;paint-order:markers fill stroke;stop-color:#000000"
           id="circle10"
           cx="50"
           cy="50"
           r="25" /><path
           id="circle37"
           style="paint-order:markers fill stroke"
           d="M 25,0 A 25,25 0 0 1 0,25 25,25 0 0 1 -25,0 25,25 0 0 1 0,-25 25,25 0 0 1 25,0 Z" /><path
           id="circle39"
           style="paint-order:markers fill stroke"
           d="M 125,0 A 25,25 0 0 1 100,25 25,25 0 0 1 75,0 25,25 0 0 1 100,-25 25,25 0 0 1 125,0 Z" /><path
           id="circle43"
           style="paint-order:markers fill stroke"
           d="M 25,100 A 25,25 0 0 1 0,125 25,25 0 0 1 -25,100 25,25 0 0 1 0,75 25,25 0 0 1 25,100 Z" /><path
           id="circle45"
           style="paint-order:markers fill stroke"
           d="m 125,100 a 25,25 0 0 1 -25,25 25,25 0 0 1 -25,-25 25,25 0 0 1 25,-25 25,25 0 0 1 25,25 z" /></g></pattern><clipPath
       clipPathUnits="userSpaceOnUse"
       id="clipPath52"><path
         id="path52"
         style="stroke-width:0.1;stroke-linecap:square;paint-order:markers fill stroke;stop-color:#000000"
         d="m -880.82767,-187.29769 h 1640.84 v 73.28155 h -1640.84 z" /></clipPath></defs><g
     inkscape:groupmode="layer"
     id="layer2"
     inkscape:label="Layer 2"><rect
       style="font-variation-settings:normal;opacity:1;fill:#ffffff;fill-opacity:1;stroke:none;stroke-width:0.13;stroke-linecap:butt;stroke-linejoin:miter;stroke-miterlimit:4;stroke-dasharray:none;stroke-dashoffset:0;stroke-opacity:1"
       id="rect68"
       width="208"
       height="104"
       x="0"
       y="0"
       ry="0"
       rx="0" /></g><g
     inkscape:label="Layer 1"
     inkscape:groupmode="layer"
     id="layer1"><text
       xml:space="preserve"
       style="font-style:normal;font-variant:normal;font-weight:normal;font-stretch:normal;font-size:26.4583px;line-height:1.5;font-family:'Source Han Sans K VF';-inkscape-font-specification:'Source Han Sans K VF';text-decoration-color:#000000;letter-spacing:0px;word-spacing:-3.57187px;white-space:pre;opacity:1;fill:#000000;stroke:#a9a9a9;stroke-width:0.499999;stroke-linecap:square;stroke-linejoin:round"
       x="3.3381271"
       y="93.921097"
       id="text3"><tspan
         sodipodi:role="line"
         id="tspan3"
         style="font-style:normal;font-variant:normal;font-weight:normal;font-stretch:normal;font-size:26.4583px;font-family:'Source Han Sans K VF';-inkscape-font-specification:'Source Han Sans K VF';fill:#000000;stroke:none;stroke-width:0.5"
         x="3.3381271"
         y="93.921097">🍖</tspan></text><path
       style="fill:#ffffff;stroke:#000000;stroke-width:0.26;stroke-dasharray:none"
       d="m 80.392778,96.213524 c -0.663864,-0.207781 -1.213528,-1.304569 -1.091932,-2.178815 0.06572,-0.472533 0.233713,-0.773719 0.515906,-0.924957 0.09229,-0.04946 0.580891,-0.327903 1.08579,-0.618763 1.091302,-0.628672 1.046003,-0.604385 1.186322,-0.636039 0.334803,-0.07553 0.71842,0.271675 0.656729,0.594392 -0.01887,0.0987 0.0031,0.09675 0.530431,-0.047 l 0.442521,-0.120643 0.0359,-0.270919 c 0.140454,-1.059837 0.799283,-1.990707 1.741174,-2.460133 0.819843,-0.408599 1.657414,-0.455943 2.59581,-0.14673 0.05485,0.01807 0.08762,-0.0076 0.187128,-0.146734 0.394494,-0.551484 1.028293,-1.228085 1.582377,-1.689239 0.594355,-0.494671 1.762912,-1.30924 2.904204,-2.02444 0.134846,-0.0845 0.241034,-0.157782 0.235973,-0.162842 -0.0051,-0.0051 -0.182071,0.0071 -0.393357,0.02694 -0.310365,0.0292 -0.393695,0.02823 -0.433818,-0.0051 -0.07081,-0.05877 -0.0636,-0.213706 0.01182,-0.254071 0.03382,-0.0181 0.398757,-0.06435 0.810983,-0.10278 l 0.749502,-0.06988 0.0566,0.0699 c 0.06271,0.07744 0.05195,0.169371 -0.02774,0.236947 -0.02873,0.02437 -0.28728,0.191912 -0.57455,0.372328 -0.776923,0.487934 -1.964894,1.270998 -2.342478,1.544069 -0.982028,0.710208 -1.827434,1.527218 -2.304413,2.227012 l -0.100593,0.147583 0.149971,0.0871 c 0.574688,0.333751 1.052245,0.886698 1.320074,1.528469 0.14156,0.339204 0.208831,0.658136 0.227945,1.080677 0.04091,0.904468 -0.252228,1.693675 -0.872419,2.348764 -0.854657,0.90275 -2.117389,1.230286 -3.31053,0.858708 -0.413705,-0.12884 -0.863745,-0.388362 -1.164471,-0.671511 l -0.119104,-0.112142 -0.24493,0.06221 -0.24493,0.06221 -0.0051,0.178204 c -0.0079,0.275625 -0.153559,0.485459 -0.39056,0.562765 -0.06094,0.01988 -0.687707,0.163174 -1.392824,0.318438 -0.705118,0.155264 -1.374624,0.304273 -1.487791,0.331131 -0.245171,0.05819 -0.352092,0.05918 -0.525591,0.0049 z m 7.306775,-1.075933 c 1.002885,-0.295191 1.727052,-1.038862 1.987621,-2.041149 0.06592,-0.253549 0.0917,-0.65929 0.06107,-0.961226 -0.06991,-0.68929 -0.363713,-1.283208 -0.87559,-1.769992 -0.191249,-0.181875 -0.557245,-0.437828 -0.626063,-0.437828 -0.04903,0 -0.386887,0.683364 -0.547765,1.107929 -0.157169,0.414775 -0.298241,0.875335 -0.387845,1.266204 -0.09118,0.397765 -0.190283,0.503321 -0.328817,0.350243 -0.05292,-0.05847 -0.05223,-0.07547 0.01494,-0.371947 0.181313,-0.800263 0.553937,-1.810477 0.859468,-2.330081 0.04908,-0.08346 0.08923,-0.156175 0.08923,-0.161578 0,-0.0054 -0.110397,-0.04392 -0.245327,-0.08559 -0.215887,-0.06668 -0.306105,-0.07571 -0.751809,-0.07526 -0.437729,4.41e-4 -0.540857,0.01061 -0.759722,0.0749 -0.286017,0.08402 -0.613205,0.240323 -0.870516,0.415859 -0.20241,0.138083 -0.575498,0.517473 -0.72537,0.737622 -0.222664,0.327075 -0.445869,0.936248 -0.445869,1.216873 0,0.09096 0.0092,0.105558 0.0554,0.08773 0.152343,-0.05881 0.470495,-0.11293 0.558003,-0.09491 0.245954,0.05064 0.462874,0.30692 0.462874,0.546865 0,0.08827 0.01082,0.101097 0.08705,0.103206 0.445562,0.01233 0.697186,0.485588 0.466137,0.876723 -0.05031,0.08516 -0.256604,0.232939 -0.322824,0.231248 -0.01353,-3.46e-4 -0.07594,0.01319 -0.13867,0.03008 l -0.114062,0.03071 0.01518,0.15794 c 0.0154,0.160263 -0.02674,0.317574 -0.111916,0.417832 -0.02495,0.02937 -0.03637,0.06796 -0.02538,0.08575 0.011,0.01779 0.140763,0.112706 0.288373,0.210922 0.293264,0.195131 0.683014,0.361879 0.979869,0.419221 0.104462,0.02018 0.218421,0.04341 0.253241,0.05162 0.03482,0.0082 0.234248,0.0096 0.443172,0.0031 0.289018,-0.009 0.44588,-0.03123 0.65592,-0.09305 z m -3.055912,-2.620412 c -10e-7,3e-6 0,7e-6 0,1e-5 z m -0.09497,-0.348206 c -2e-6,3e-6 0,7e-6 0,1e-5 z M 68.33401,96.108182 c -0.296014,-1.741576 -0.759,-3.058411 -2.039546,-5.800925 -0.520684,-1.115137 -0.783991,-1.703236 -0.942489,-2.105064 -0.06181,-0.156693 -0.137063,-0.313386 -0.167237,-0.348207 -0.07846,-0.09054 -0.157233,-0.255332 -0.157233,-0.32892 0,-0.03465 -0.03564,-0.161788 -0.07919,-0.282536 -0.270765,-0.750622 -0.460984,-1.605559 -0.555888,-2.498422 -0.05568,-0.523873 -0.02212,-1.83824 0.06043,-2.366455 0.165557,-1.059386 0.421102,-1.872636 0.879196,-2.797967 l 0.257059,-0.51925 -0.07751,-0.114077 c -0.07598,-0.111821 -0.08207,-0.191621 -0.02805,-0.367318 0.01558,-0.05066 -0.02014,-0.09279 -0.178716,-0.210844 -0.740985,-0.551612 -1.259292,-0.781039 -1.686931,-0.746712 -0.540088,0.04335 -0.852448,0.483613 -1.016744,1.43306 -0.07551,0.436385 -0.07493,1.719171 0.0011,2.484248 0.225238,2.265523 0.706351,4.736624 1.839572,9.448446 0.258195,1.073549 0.520449,2.209429 0.601269,2.604235 0.0402,0.196379 -0.04538,0.10526 -0.193253,-0.205758 -0.08071,-0.16975 -0.217926,-0.458207 -0.304931,-0.641016 -0.087,-0.182808 -0.307354,-0.667131 -0.489663,-1.076273 -1.743216,-3.912156 -2.732225,-7.315082 -2.955687,-10.169758 -0.05565,-0.710929 -0.02167,-2.139666 0.06416,-2.698043 0.323576,-2.10488 1.219767,-3.55957 2.613369,-4.241996 0.829292,-0.406093 1.788069,-0.494399 2.727401,-0.251202 0.490806,0.127072 1.16204,0.47324 1.458512,0.752184 0.05632,0.05299 0.112031,0.08672 0.123796,0.07496 0.01176,-0.01177 -0.04528,-0.42389 -0.126769,-0.915835 -0.08149,-0.491944 -0.147878,-0.926495 -0.147536,-0.965668 8.33e-4,-0.09545 0.10839,-0.197844 0.207819,-0.197844 0.04432,0 0.113072,0.0325 0.152788,0.07221 0.06385,0.06385 0.09501,0.211107 0.269099,1.271613 0.189771,1.156045 0.200268,1.203251 0.290384,1.305887 0.05142,0.05857 0.09349,0.13448 0.09349,0.168695 0,0.07643 0.0057,0.07654 0.151623,0.0031 0.171698,-0.08644 0.677506,-0.282096 0.953831,-0.368966 1.424663,-0.447879 3.160148,-0.362271 4.584142,0.226126 0.869982,0.359478 1.636118,0.874431 2.321547,1.560413 0.664757,0.665292 1.138789,1.321696 1.571175,2.175643 0.193222,0.381606 0.237323,0.492894 0.203763,0.514185 -0.03467,0.022 -0.02136,0.09067 0.0699,0.36052 0.1831,0.541455 0.319822,1.125457 0.414651,1.771167 0.05407,0.36817 0.007,0.263913 0.776307,1.717985 0.485283,0.917187 1.330211,2.54294 1.330211,2.559501 0,0.01071 -0.43657,0.02324 -0.970157,0.02785 l -0.970157,0.0084 -0.05931,0.216553 c -0.07608,0.2778 -0.118396,0.358798 -0.35814,0.685617 -0.108558,0.147988 -0.235025,0.334467 -0.281035,0.414398 l -0.08366,0.14533 -0.669802,0.02086 c -0.368391,0.01147 -1.403487,0.02086 -2.300212,0.02086 -0.896726,0 -1.624297,0.0061 -1.616826,0.01358 0.0075,0.0075 0.982053,0.135686 2.165737,0.284921 2.520808,0.317816 2.389566,0.298947 2.389566,0.343547 0,0.01927 -0.120162,0.406191 -0.267027,0.85982 -0.146865,0.453628 -0.285752,0.887115 -0.308638,0.963304 -0.08714,0.290117 -0.835671,0.817915 -1.6479,1.16196 l -0.213466,0.09042 -0.0081,2.280127 -0.0081,2.280127 -3.820896,0.008 -3.820896,0.008 z"
       id="path3"
       sodipodi:nodetypes="ssssssscssscsssccsscssssscsssssscccsssssscssssssssssssssssssssssscsssssssccssssssssssscssscssssscsssssscssssssssssscsssssssssscssscsssssssscccccs" /><text
       xml:space="preserve"
       style="font-weight:bold;font-size:26.4583px;line-height:1.5;font-family:Tahoma;-inkscape-font-specification:'Tahoma Bold';text-decoration-color:#000000;letter-spacing:0px;word-spacing:-3.57187px;white-space:pre;opacity:0.5;fill:#808080;stroke:#a9a9a9;stroke-width:0.499999;stroke-linecap:square;stroke-linejoin:round"
       x="64.778236"
       y="34.028229"
       id="text8"><tspan
         sodipodi:role="line"
         id="tspan8"
         style="font-style:normal;font-variant:normal;font-weight:normal;font-stretch:normal;font-size:26.4583px;font-family:linzklar_rounded;-inkscape-font-specification:linzklar_rounded;stroke:none;stroke-width:0.5"
         x="64.778236"
         y="34.028229">く</tspan></text><text
       xml:space="preserve"
       style="font-weight:bold;font-size:26.4583px;line-height:1.5;font-family:Tahoma;-inkscape-font-specification:'Tahoma Bold';text-decoration-color:#000000;letter-spacing:0px;word-spacing:-3.57187px;white-space:pre;opacity:0.5;fill:#808080;stroke:#a9a9a9;stroke-width:0.499999;stroke-linecap:square;stroke-linejoin:round"
       x="64.786011"
       y="64.942284"
       id="text10"><tspan
         sodipodi:role="line"
         id="tspan10"
         style="font-style:normal;font-variant:normal;font-weight:normal;font-stretch:normal;font-size:26.4583px;font-family:linzklar_rounded;-inkscape-font-specification:linzklar_rounded;stroke:none;stroke-width:0.5"
         x="64.786011"
         y="64.942284">ぐ</tspan></text><text
       xml:space="preserve"
       style="font-weight:bold;font-size:13.2292px;line-height:1.5;font-family:Tahoma;-inkscape-font-specification:'Tahoma Bold';text-decoration-color:#000000;letter-spacing:0px;word-spacing:-3.57187px;white-space:pre;fill:#808080;stroke:#a9a9a9;stroke-width:0.499999;stroke-linecap:square;stroke-linejoin:round"
       x="96.60054"
       y="26.428377"
       id="text12"><tspan
         sodipodi:role="line"
         id="tspan12"
         style="font-style:normal;font-variant:normal;font-weight:normal;font-stretch:normal;font-size:13.2292px;font-family:linzklar_rounded;-inkscape-font-specification:linzklar_rounded;fill:#000000;stroke:none;stroke-width:0.5"
         x="96.60054"
         y="26.428377">ku</tspan></text><text
       xml:space="preserve"
       style="font-weight:bold;font-size:13.2292px;line-height:1.5;font-family:Tahoma;-inkscape-font-specification:'Tahoma Bold';text-decoration-color:#000000;letter-spacing:0px;word-spacing:-3.57187px;white-space:pre;fill:#808080;stroke:#a9a9a9;stroke-width:0.499999;stroke-linecap:square;stroke-linejoin:round"
       x="96.60054"
       y="57.627419"
       id="text13"><tspan
         sodipodi:role="line"
         id="tspan13"
         style="font-style:normal;font-variant:normal;font-weight:normal;font-stretch:normal;font-size:13.2292px;font-family:linzklar_rounded;-inkscape-font-specification:linzklar_rounded;fill:#000000;stroke:none;stroke-width:0.5"
         x="96.60054"
         y="57.627419">gu</tspan></text><text
       xml:space="preserve"
       style="font-weight:bold;font-size:26.4583px;line-height:1.5;font-family:Tahoma;-inkscape-font-specification:'Tahoma Bold';text-decoration-color:#000000;letter-spacing:0px;word-spacing:-3.57187px;white-space:pre;opacity:0.5;fill:#808080;stroke:#a9a9a9;stroke-width:0.499999;stroke-linecap:square;stroke-linejoin:round"
       x="7.5775404"
       y="34.028229"
       id="text15"><tspan
         sodipodi:role="line"
         id="tspan15"
         style="font-style:normal;font-variant:normal;font-weight:normal;font-stretch:normal;font-size:26.4583px;font-family:linzklar_rounded;-inkscape-font-specification:linzklar_rounded;stroke:none;stroke-width:0.5"
         x="7.5775404"
         y="34.028229">け</tspan></text><rect
       style="fill:none;stroke:#005242;stroke-width:0.52;stroke-linecap:square;stroke-linejoin:round;stroke-dasharray:none;stroke-opacity:1"
       id="rect15"
       width="31.2"
       height="31.2"
       x="5.2"
       y="5.2" /><text
       xml:space="preserve"
       style="font-weight:bold;font-size:26.4583px;line-height:1.5;font-family:Tahoma;-inkscape-font-specification:'Tahoma Bold';text-decoration-color:#000000;letter-spacing:0px;word-spacing:-3.57187px;white-space:pre;opacity:0.5;fill:#808080;stroke:#a9a9a9;stroke-width:0.499999;stroke-linecap:square;stroke-linejoin:round"
       x="7.5853148"
       y="64.942284"
       id="text17"><tspan
         sodipodi:role="line"
         id="tspan17"
         style="font-style:normal;font-variant:normal;font-weight:normal;font-stretch:normal;font-size:26.4583px;font-family:linzklar_rounded;-inkscape-font-specification:linzklar_rounded;stroke:none;stroke-width:0.5"
         x="7.5853148"
         y="64.942284">か</tspan></text><text
       xml:space="preserve"
       style="font-weight:bold;font-size:13.2292px;line-height:1.5;font-family:Tahoma;-inkscape-font-specification:'Tahoma Bold';text-decoration-color:#000000;letter-spacing:0px;word-spacing:-3.57187px;white-space:pre;fill:#808080;stroke:#a9a9a9;stroke-width:0.499999;stroke-linecap:square;stroke-linejoin:round"
       x="39.400867"
       y="26.428377"
       id="text19"><tspan
         sodipodi:role="line"
         id="tspan19"
         style="font-style:normal;font-variant:normal;font-weight:normal;font-stretch:normal;font-size:13.2292px;font-family:linzklar_rounded;-inkscape-font-specification:linzklar_rounded;fill:#000000;stroke:none;stroke-width:0.5"
         x="39.400867"
         y="26.428377">ke</tspan></text><text
       xml:space="preserve"
       style="font-weight:bold;font-size:13.2292px;line-height:1.5;font-family:Tahoma;-inkscape-font-specification:'Tahoma Bold';text-decoration-color:#000000;letter-spacing:0px;word-spacing:-3.57187px;white-space:pre;fill:#808080;stroke:#a9a9a9;stroke-width:0.499999;stroke-linecap:square;stroke-linejoin:round"
       x="39.428429"
       y="57.627419"
       id="text20"><tspan
         sodipodi:role="line"
         id="tspan20"
         style="font-style:normal;font-variant:normal;font-weight:normal;font-stretch:normal;font-size:13.2292px;font-family:linzklar_rounded;-inkscape-font-specification:linzklar_rounded;fill:#000000;stroke:none;stroke-width:0.5"
         x="39.428429"
         y="57.627419">ka</tspan></text><rect
       style="fill:url(#pattern48);fill-opacity:1;stroke:none;stroke-width:0.52;stroke-linecap:square;stroke-linejoin:round;stroke-dasharray:none;stroke-opacity:1"
       id="rect28"
       width="15.6"
       height="104"
       x="192.39999"
       y="0" /><rect
       style="fill:none;stroke:#005242;stroke-width:0.52;stroke-linecap:square;stroke-linejoin:round;stroke-dasharray:none;stroke-opacity:1"
       id="rect4"
       width="31.200001"
       height="31.200001"
       x="5.1999998"
       y="36.400002" /><rect
       style="fill:none;stroke:#005242;stroke-width:0.52;stroke-linecap:square;stroke-linejoin:round;stroke-dasharray:none;stroke-opacity:1"
       id="rect6"
       width="31.200001"
       height="31.200001"
       x="62.400002"
       y="5.1999998" /><rect
       style="fill:none;stroke:#005242;stroke-width:0.52;stroke-linecap:square;stroke-linejoin:round;stroke-dasharray:none;stroke-opacity:1"
       id="rect7"
       width="31.200001"
       height="31.200001"
       x="62.400002"
       y="36.400002" /><text
       xml:space="preserve"
       style="font-weight:bold;font-size:26.4583px;line-height:1.5;font-family:Tahoma;-inkscape-font-specification:'Tahoma Bold';text-decoration-color:#000000;letter-spacing:0px;word-spacing:-3.57187px;white-space:pre;opacity:0.5;fill:#808080;stroke:#a9a9a9;stroke-width:0.499999;stroke-linecap:square;stroke-linejoin:round"
       x="121.97823"
       y="34.028229"
       id="text14"><tspan
         sodipodi:role="line"
         id="tspan14"
         style="font-style:normal;font-variant:normal;font-weight:normal;font-stretch:normal;font-size:26.4583px;font-family:linzklar_rounded;-inkscape-font-specification:linzklar_rounded;stroke:none;stroke-width:0.5"
         x="121.97823"
         y="34.028229">か</tspan></text><text
       xml:space="preserve"
       style="font-weight:bold;font-size:26.4583px;line-height:1.5;font-family:Tahoma;-inkscape-font-specification:'Tahoma Bold';text-decoration-color:#000000;letter-spacing:0px;word-spacing:-3.57187px;white-space:pre;opacity:0.5;fill:#808080;stroke:#a9a9a9;stroke-width:0.499999;stroke-linecap:square;stroke-linejoin:round"
       x="121.986"
       y="64.942284"
       id="text16"><tspan
         sodipodi:role="line"
         id="tspan16"
         style="font-style:normal;font-variant:normal;font-weight:normal;font-stretch:normal;font-size:26.4583px;font-family:linzklar_rounded;-inkscape-font-specification:linzklar_rounded;stroke:none;stroke-width:0.5"
         x="121.986"
         y="64.942284">が</tspan></text><text
       xml:space="preserve"
       style="font-weight:bold;font-size:13.2292px;line-height:1.5;font-family:Tahoma;-inkscape-font-specification:'Tahoma Bold';text-decoration-color:#000000;letter-spacing:0px;word-spacing:-3.57187px;white-space:pre;fill:#808080;stroke:#a9a9a9;stroke-width:0.499999;stroke-linecap:square;stroke-linejoin:round"
       x="153.80054"
       y="26.428377"
       id="text23"><tspan
         sodipodi:role="line"
         id="tspan23"
         style="font-style:normal;font-variant:normal;font-weight:normal;font-stretch:normal;font-size:13.2292px;font-family:linzklar_rounded;-inkscape-font-specification:linzklar_rounded;fill:#000000;stroke:none;stroke-width:0.5"
         x="153.80054"
         y="26.428377">ka</tspan></text><text
       xml:space="preserve"
       style="font-weight:bold;font-size:13.2292px;line-height:1.5;font-family:Tahoma;-inkscape-font-specification:'Tahoma Bold';text-decoration-color:#000000;letter-spacing:0px;word-spacing:-3.57187px;white-space:pre;fill:#808080;stroke:#a9a9a9;stroke-width:0.499999;stroke-linecap:square;stroke-linejoin:round"
       x="153.80054"
       y="57.627419"
       id="text24"><tspan
         sodipodi:role="line"
         id="tspan24"
         style="font-style:normal;font-variant:normal;font-weight:normal;font-stretch:normal;font-size:13.2292px;font-family:linzklar_rounded;-inkscape-font-specification:linzklar_rounded;fill:#000000;stroke:none;stroke-width:0.5"
         x="153.80054"
         y="57.627419">ga</tspan></text><rect
       style="fill:none;stroke:#005242;stroke-width:0.52;stroke-linecap:square;stroke-linejoin:round;stroke-dasharray:none;stroke-opacity:1"
       id="rect24"
       width="31.200001"
       height="31.200001"
       x="119.6"
       y="5.1999998" /><rect
       style="fill:none;stroke:#005242;stroke-width:0.52;stroke-linecap:square;stroke-linejoin:round;stroke-dasharray:none;stroke-opacity:1"
       id="rect25"
       width="31.200001"
       height="31.200001"
       x="119.6"
       y="36.400002" /><rect
       style="opacity:1;fill:#ffffff;fill-opacity:1;stroke:#ea2300;stroke-width:1.04;stroke-linecap:square;stroke-linejoin:round;stroke-dasharray:none;stroke-opacity:1"
       id="rect57"
       width="22.183765"
       height="80.123001"
       x="178.01622"
       y="13"
       ry="5.1999998"
       rx="5.1999998" /><circle
       style="opacity:1;fill:#ea2300;fill-opacity:1;stroke:#ffffff;stroke-width:1.04;stroke-linecap:square;stroke-linejoin:round;stroke-dasharray:none"
       id="path54"
       cx="195"
       cy="13"
       r="7.8000002" /><text
       xml:space="preserve"
       style="font-weight:bold;font-size:10.5833px;line-height:1.5;font-family:Tahoma;-inkscape-font-specification:'Tahoma Bold';text-decoration-color:#000000;letter-spacing:0px;word-spacing:-3.57187px;white-space:pre;opacity:1;fill:#ffffff;fill-opacity:1;stroke:#ffffff;stroke-width:0.52;stroke-linecap:square;stroke-linejoin:round;stroke-dasharray:none"
       x="189.72488"
       y="18.282095"
       id="text57"><tspan
         sodipodi:role="line"
         id="tspan57"
         style="font-style:normal;font-variant:normal;font-weight:normal;font-stretch:normal;font-size:10.5833px;font-family:linzklar_rounded;-inkscape-font-specification:linzklar_rounded;fill:#ffffff;fill-opacity:1;stroke:#ffffff;stroke-width:0.52;stroke-dasharray:none"
         x="189.72488"
         y="18.282095">一</tspan></text><text
       xml:space="preserve"
       style="font-weight:bold;font-size:8.46667px;line-height:1;font-family:Tahoma;-inkscape-font-specification:'Tahoma Bold';text-decoration-color:#000000;letter-spacing:0px;word-spacing:0px;writing-mode:tb-rl;white-space:pre;fill:#808080;stroke:#a9a9a9;stroke-width:0.499999;stroke-linecap:square;stroke-linejoin:round"
       x="193.99413"
       y="21.188494"
       id="text58"><tspan
         sodipodi:role="line"
         style="font-style:normal;font-variant:normal;font-weight:normal;font-stretch:normal;font-size:8.46667px;line-height:1;font-family:linzklar_rounded;-inkscape-font-specification:linzklar_rounded;word-spacing:0px;writing-mode:tb-rl;fill:#000000;stroke:none;stroke-width:0.5;stroke-opacity:1"
         x="193.99413"
         y="21.188494"
         id="tspan59">かき  ちとし</tspan><tspan
         sodipodi:role="line"
         style="font-style:normal;font-variant:normal;font-weight:normal;font-stretch:normal;font-size:8.46667px;line-height:1;font-family:linzklar_rounded;-inkscape-font-specification:linzklar_rounded;word-spacing:0px;writing-mode:tb-rl;fill:#000000;stroke:none;stroke-width:0.5;stroke-opacity:1"
         x="184.62715"
         y="21.188494"
         id="tspan60" /></text><text
       xml:space="preserve"
       style="font-weight:bold;font-size:2.64583px;line-height:1;font-family:Tahoma;-inkscape-font-specification:'Tahoma Bold';text-decoration-color:#000000;letter-spacing:0px;word-spacing:0px;writing-mode:tb-rl;white-space:pre;fill:#808080;stroke:#a9a9a9;stroke-width:0.499999;stroke-linecap:square;stroke-linejoin:round"
       x="190.10387"
       y="31.962021"
       id="text62"><tspan
         sodipodi:role="line"
         style="font-style:normal;font-variant:normal;font-weight:bold;font-stretch:normal;font-size:2.64583px;line-height:1;font-family:linzklar_rounded;-inkscape-font-specification:linzklar_rounded;word-spacing:0px;writing-mode:tb-rl;fill:#000000;stroke:none;stroke-width:0.5;stroke-opacity:1"
         x="188.4996"
         y="31.962021"
         id="tspan62" /><tspan
         sodipodi:role="line"
         style="font-style:normal;font-variant:normal;font-weight:normal;font-stretch:normal;font-size:2.64583px;line-height:1;font-family:linzklar_rounded;-inkscape-font-specification:linzklar_rounded;word-spacing:0px;writing-mode:tb-rl;fill:#000000;stroke:none;stroke-width:0.5;stroke-opacity:1"
         x="185.29109"
         y="31.962021"
         id="tspan64">一形唯き貝即</tspan><tspan
         sodipodi:role="line"
         style="font-style:normal;font-variant:normal;font-weight:normal;font-stretch:normal;font-size:2.64583px;line-height:1;font-family:linzklar_rounded;-inkscape-font-specification:linzklar_rounded;word-spacing:0px;writing-mode:tb-rl;fill:#000000;stroke:none;stroke-width:0.5;stroke-opacity:1"
         x="182.08257"
         y="31.962021"
         id="tspan63">多まき筆能す</tspan></text><rect
       style="opacity:1;fill:#ea2300;fill-opacity:1;stroke:none;stroke-width:0.52;stroke-linecap:square;stroke-linejoin:round;stroke-dasharray:none;stroke-opacity:1"
       id="rect64"
       width="5.2000003"
       height="15.6"
       x="181.08867"
       y="15.180458"
       ry="2.5999999"
       rx="2.5999999" /><text
       xml:space="preserve"
       style="font-weight:bold;font-size:3.175px;line-height:1;font-family:Tahoma;-inkscape-font-specification:'Tahoma Bold';text-decoration-color:#000000;letter-spacing:0px;word-spacing:0px;writing-mode:tb-rl;white-space:pre;fill:#808080;stroke:#ffffff;stroke-width:0.13;stroke-linecap:square;stroke-linejoin:round;stroke-dasharray:none"
       x="183.69092"
       y="16.238731"
       id="text67"><tspan
         sodipodi:role="line"
         style="font-style:normal;font-variant:normal;font-weight:bold;font-stretch:normal;font-size:3.175px;line-height:1;font-family:linzklar_rounded;-inkscape-font-specification:linzklar_rounded;word-spacing:0px;writing-mode:tb-rl;fill:#ffffff;fill-opacity:1;stroke:#ffffff;stroke-width:0.13;stroke-dasharray:none;stroke-opacity:1"
         x="183.69092"
         y="16.238731"
         id="tspan65">母父目し</tspan><tspan
         sodipodi:role="line"
         style="font-style:normal;font-variant:normal;font-weight:normal;font-stretch:normal;font-size:3.175px;line-height:1;font-family:linzklar_rounded;-inkscape-font-specification:linzklar_rounded;word-spacing:0px;writing-mode:tb-rl;fill:#ffffff;fill-opacity:1;stroke:#ffffff;stroke-width:0.13;stroke-dasharray:none;stroke-opacity:1"
         x="180.1783"
         y="16.238731"
         id="tspan67" /></text><text
       xml:space="preserve"
       style="font-weight:bold;font-size:26.4583px;line-height:1.5;font-family:Tahoma;-inkscape-font-specification:'Tahoma Bold';text-decoration-color:#000000;letter-spacing:0px;word-spacing:-3.57187px;white-space:pre;opacity:1;fill:#000000;stroke:#a9a9a9;stroke-width:0.499999;stroke-linecap:square;stroke-linejoin:round"
       x="116.33813"
       y="93.921097"
       id="text1"><tspan
         sodipodi:role="line"
         id="tspan1"
         style="font-style:normal;font-variant:normal;font-weight:normal;font-stretch:normal;font-size:26.4583px;font-family:linzklar_rounded;-inkscape-font-specification:linzklar_rounded;fill:#000000;stroke:none;stroke-width:0.5"
         x="116.33813"
         y="93.921097">⌚</tspan></text><path
       style="fill:#000000"
       d="M 64.713755,93.03751 C 61.64582,86.546654 60.500208,81.372862 61.368243,77.928558 c 0.489409,-1.941947 1.59215,-3.211031 3.152781,-3.628362 0.367866,-0.09837 1.108773,-0.13569 1.514919,-0.0763 0.717054,0.104847 1.322063,0.378929 1.940341,0.879015 0.207264,0.167643 0.211191,0.173678 0.247058,0.379642 0.03632,0.208592 0.03614,0.209619 -0.05504,0.307549 -0.05031,0.05404 -0.630024,0.668051 -1.28824,1.364463 -0.658217,0.696412 -1.221914,1.29298 -1.252661,1.325705 -0.0544,0.0579 -0.06087,0.05571 -0.24085,-0.08173 -1.452244,-1.109003 -2.324959,-1.065328 -2.695019,0.134871 -0.243233,0.788868 -0.239398,2.23885 0.01088,4.113318 0.268866,2.013686 0.735396,4.282047 1.751313,8.515223 0.173399,0.722528 0.366925,1.548726 0.430058,1.835996 0.06313,0.28727 0.12085,0.540115 0.12826,0.561878 0.0074,0.02176 0.0031,0.03957 -0.0096,0.03957 -0.0127,0 -0.142603,-0.252845 -0.288669,-0.561878 z m 0.568943,-5.162228 c -0.108059,-0.05795 -0.223537,-0.226824 -0.223537,-0.326892 0,-0.02934 -0.06517,-0.250356 -0.144822,-0.491148 -0.368869,-1.115119 -0.532362,-2.127212 -0.528385,-3.270937 0.0055,-1.580231 0.334234,-2.95853 1.029304,-4.315541 l 0.22424,-0.437792 0.09804,0.01839 c 0.06372,0.01195 0.133447,-0.001 0.199184,-0.03704 0.116591,-0.06389 2.786153,-2.860673 2.821339,-2.955789 0.05064,-0.136887 1.152379,-0.560371 1.796285,-0.69045 0.954094,-0.192744 2.088008,-0.164101 3.020036,0.07629 1.805153,0.465582 3.479229,1.762208 4.517171,3.498697 0.200946,0.336185 0.525292,0.98256 0.503817,1.004035 -0.0088,0.0088 -0.490462,-0.04294 -1.070298,-0.115042 -2.073935,-0.257887 -2.894112,-0.319645 -3.242103,-0.244125 -1.16262,0.252311 -1.88994,1.06335 -2.161097,2.40985 -0.169585,0.842117 -0.166196,1.725603 0.01224,3.190374 0.0089,0.07338 0.009,0.119167 1.2e-4,0.101757 -0.0089,-0.01741 -0.400879,-1.176438 -0.871126,-2.575617 -0.470247,-1.399178 -0.862835,-2.556647 -0.872418,-2.572153 -0.04643,-0.07512 -0.655836,0.362878 -0.970987,0.697885 -1.072805,1.140398 -1.58736,3.257643 -1.22523,5.041468 0.153394,0.755611 0.450084,1.346639 0.867511,1.728143 l 0.176389,0.16121 -0.134902,0.01621 c -0.110531,0.01328 -3.505181,0.149248 -3.664941,0.146793 -0.02639,-4.05e-4 -0.09651,-0.02677 -0.15583,-0.05858 z m 11.093164,-4.955186 c -0.486099,-0.223772 -0.272056,-0.927973 0.252167,-0.829629 0.114069,0.0214 0.261214,0.149274 0.305518,0.265506 0.131634,0.345342 -0.232596,0.713776 -0.557685,0.564123 z"
       id="path2" /><rect
       style="opacity:1;fill:none;fill-opacity:1;stroke:#000000;stroke-width:0.26;stroke-linecap:round;stroke-linejoin:round;stroke-dasharray:none;stroke-opacity:1"
       id="rect3"
       width="5.5658879"
       height="5.7529764"
       x="94.52655"
       y="81.776627" /></g></svg>
